<svg xmlns:dc="http://purl.org/dc/elements/1.1/" xmlns:cc="http://creativecommons.org/ns#" xmlns:rdf="http://www.w3.org/1999/02/22-rdf-syntax-ns#" xmlns:svg="http://www.w3.org/2000/svg" xmlns="http://www.w3.org/2000/svg" xmlns:sodipodi="http://sodipodi.sourceforge.net/DTD/sodipodi-0.dtd" xmlns:inkscape="http://www.inkscape.org/namespaces/inkscape" id="Capa_1" viewBox="0 0 346.034 346.034" style="enable-background:new 0 0 346.034 346.034" sodipodi:docname="test.svg" inkscape:version="0.92.5 (2060ec1f9f, 2020-04-08)"><defs id="defs77" /><sodipodi:namedview pagecolor="#ffffff" bordercolor="#666666" borderopacity="1" objecttolerance="10" gridtolerance="10" guidetolerance="10" inkscape:pageopacity="0" inkscape:pageshadow="2" inkscape:window-width="1920" inkscape:window-height="1022" id="namedview75" showgrid="false" inkscape:zoom="1.3640278" inkscape:cx="318.1616" inkscape:cy="247.483" inkscape:window-x="0" inkscape:window-y="0" inkscape:window-maximized="1" inkscape:current-layer="g42" /><g id="g42"><path style="fill:#0f0;fill-opacity:1;stroke:#00a998;stroke-width:0;stroke-linecap:butt;stroke-linejoin:miter;stroke-miterlimit:0;stroke-dasharray:none;stroke-opacity:1;paint-order:markers stroke fill" id="rect889" d="M10.367923 110.68214h325.5528v150.33488H10.367923z" /><circle style="fill:#fff;fill-opacity:1;stroke:#000;stroke-width:0;stroke-linecap:butt;stroke-linejoin:miter;stroke-miterlimit:0;stroke-dasharray:none;stroke-opacity:0;paint-order:markers stroke fill" id="path891" cx="89.42334" cy="184.0352" r="56.764378" /><path d="M323.5 99.299h-59.482v-6.615h7.1c3.59.0 6.5-2.91 6.5-6.5s-2.91-6.5-6.5-6.5h-27.2c-3.59.0-6.5 2.91-6.5 6.5s2.91 6.5 6.5 6.5h7.101v6.615h-156V69.683h7.1c3.59.0 6.5-2.91 6.5-6.5s-2.91-6.5-6.5-6.5h-27.2c-3.59.0-6.5 2.91-6.5 6.5s2.91 6.5 6.5 6.5h7.1v29.615H22.534C10.109 99.299.0 109.407.0 121.833V248.78c0 11.402 8.514 20.846 19.517 22.326v11.744c0 3.59 2.91 6.5 6.5 6.5s6.5-2.91 6.5-6.5v-11.536h281v11.536c0 3.59 2.91 6.5 6.5 6.5s6.5-2.91 6.5-6.5v-11.744c11.003-1.479 19.517-10.924 19.517-22.326V121.833C346.034 109.407 335.925 99.299 323.5 99.299zM333.034 248.78c0 5.257-4.277 9.534-9.534 9.534H22.534c-5.257.0-9.534-4.277-9.534-9.534V121.833c0-5.257 4.277-9.534 9.534-9.534H323.5c5.257.0 9.534 4.277 9.534 9.534V248.78z" id="path2" /><path d="M89.517 118.683c-36.117.0-65.5 29.383-65.5 65.5s29.383 65.5 65.5 65.5c36.117.0 65.5-29.383 65.5-65.5S125.634 118.683 89.517 118.683zM89.517 236.683c-28.949.0-52.5-23.552-52.5-52.5s23.551-52.5 52.5-52.5 52.5 23.552 52.5 52.5S118.465 236.683 89.517 236.683z" id="path4" /><circle r="56.764378" cy="184.0352" cx="255.42334" id="circle893" style="fill:#fff;fill-opacity:1;stroke:#000;stroke-width:0;stroke-linecap:butt;stroke-linejoin:miter;stroke-miterlimit:0;stroke-dasharray:none;stroke-opacity:0;paint-order:markers stroke fill" /><path d="M256.517 118.683c-36.117.0-65.5 29.383-65.5 65.5s29.383 65.5 65.5 65.5 65.5-29.383 65.5-65.5S292.634 118.683 256.517 118.683zM256.517 236.683c-28.948.0-52.5-23.552-52.5-52.5s23.552-52.5 52.5-52.5 52.5 23.552 52.5 52.5S285.465 236.683 256.517 236.683z" id="path6" /><path d="M89.517 215.473c-3.59.0-6.5 2.91-6.5 6.5v3.71c0 3.59 2.91 6.5 6.5 6.5s6.5-2.91 6.5-6.5v-3.71C96.017 218.384 93.107 215.473 89.517 215.473z" id="path8" /><path d="M89.517 152.893c3.59.0 6.5-2.91 6.5-6.5v-3.71c0-3.59-2.91-6.5-6.5-6.5s-6.5 2.91-6.5 6.5v3.71C83.017 149.983 85.927 152.893 89.517 152.893z" id="path10" /><path d="M58.227 184.183c0-3.59-2.91-6.5-6.5-6.5h-3.71c-3.59.0-6.5 2.91-6.5 6.5s2.91 6.5 6.5 6.5h3.71C55.317 190.683 58.227 187.773 58.227 184.183z" id="path12" /><path d="M120.807 184.183c0 3.59 2.91 6.5 6.5 6.5h3.71c3.59.0 6.5-2.91 6.5-6.5s-2.91-6.5-6.5-6.5h-3.71C123.717 177.683 120.807 180.594 120.807 184.183z" id="path14" /><path d="M64.773 150.247c-2.538-2.537-6.654-2.537-9.192.0-2.539 2.539-2.539 6.654.0 9.192l2.62 2.62c1.269 1.27 2.933 1.904 4.596 1.904s3.327-.635 4.596-1.904c2.539-2.538 2.539-6.653.0-9.192L64.773 150.247z" id="path16" /><path d="M94.113 179.588c-2.538-2.539-6.654-2.538-9.192-.001-2.539 2.539-2.539 6.654.0 9.192l29.34 29.342c1.269 1.269 2.933 1.903 4.596 1.903s3.327-.635 4.596-1.903c2.539-2.539 2.539-6.654.0-9.193L94.113 179.588z" id="path18" /><path d="M116.237 163.964c1.664.0 3.327-.635 4.596-1.904l2.62-2.62c2.539-2.538 2.539-6.653.0-9.192-2.538-2.537-6.654-2.537-9.192.0l-2.62 2.62c-2.539 2.539-2.539 6.654.0 9.192C112.91 163.329 114.573 163.964 116.237 163.964z" id="path20" /><path d="M58.201 206.307l-2.62 2.62c-2.539 2.539-2.539 6.654.0 9.192 1.269 1.27 2.933 1.904 4.596 1.904s3.327-.635 4.596-1.904l2.62-2.62c2.539-2.538 2.539-6.653.0-9.192C64.855 203.77 60.739 203.77 58.201 206.307z" id="path22" /><path d="M256.517 152.893c3.59.0 6.5-2.91 6.5-6.5v-3.71c0-3.59-2.91-6.5-6.5-6.5s-6.5 2.91-6.5 6.5v3.71C250.017 149.983 252.927 152.893 256.517 152.893z" id="path24" /><path d="M256.517 215.473c-3.59.0-6.5 2.91-6.5 6.5v3.71c0 3.59 2.91 6.5 6.5 6.5s6.5-2.91 6.5-6.5v-3.71C263.017 218.384 260.107 215.473 256.517 215.473z" id="path26" /><path d="M287.807 184.183c0 3.59 2.91 6.5 6.5 6.5h3.71c3.59.0 6.5-2.91 6.5-6.5s-2.91-6.5-6.5-6.5h-3.71C290.717 177.683 287.807 180.594 287.807 184.183z" id="path28" /><path d="M225.227 184.183c0-3.59-2.91-6.5-6.5-6.5h-3.71c-3.59.0-6.5 2.91-6.5 6.5s2.91 6.5 6.5 6.5h3.71C222.317 190.683 225.227 187.773 225.227 184.183z" id="path30" /><path d="M287.833 206.307c-2.539-2.537-6.655-2.537-9.192.0-2.539 2.539-2.539 6.654.0 9.192l2.62 2.62c1.269 1.27 2.933 1.904 4.596 1.904s3.327-.635 4.597-1.904c2.538-2.538 2.538-6.653.0-9.192L287.833 206.307z" id="path32" /><path d="M231.774 150.248c-2.538-2.538-6.652-2.539-9.192-.001-2.538 2.537-2.539 6.653-.001 9.192l29.341 29.341c1.269 1.269 2.933 1.903 4.596 1.903s3.327-.635 4.597-1.904c2.538-2.538 2.538-6.653-.001-9.192L231.774 150.248z" id="path34" /><path d="M225.2 206.308l-2.619 2.62c-2.538 2.539-2.537 6.655.001 9.192 1.27 1.269 2.933 1.903 4.596 1.903 1.664.0 3.328-.635 4.597-1.904l2.619-2.62c2.538-2.539 2.537-6.655-.001-9.192C231.853 203.77 227.737 203.769 225.2 206.308z" id="path36" /><path d="M283.237 163.964c1.663.0 3.327-.635 4.597-1.904l2.62-2.62c2.538-2.538 2.538-6.653.0-9.192-2.539-2.537-6.655-2.537-9.192.0l-2.62 2.62c-2.539 2.539-2.539 6.654.0 9.192C279.91 163.329 281.574 163.964 283.237 163.964z" id="path38" /><path d="M173.017 123.929c-3.59.0-6.5 2.91-6.5 6.5v109.754c0 3.59 2.91 6.5 6.5 6.5s6.5-2.91 6.5-6.5V130.429C179.517 126.84 176.607 123.929 173.017 123.929z" id="path40" /></g><g id="g44"/><g id="g46"/><g id="g48"/><g id="g50"/><g id="g52"/><g id="g54"/><g id="g56"/><g id="g58"/><g id="g60"/><g id="g62"/><g id="g64"/><g id="g66"/><g id="g68"/><g id="g70"/><g id="g72"/></svg>