<?xml version="1.0" standalone="no"?>
<!DOCTYPE svg PUBLIC "-//W3C//DTD SVG 20010904//EN"
 "http://www.w3.org/TR/2001/REC-SVG-20010904/DTD/svg10.dtd">
<svg version="1.0" xmlns="http://www.w3.org/2000/svg"
 width="700.000000pt" height="700.000000pt" viewBox="0 0 700.000000 700.000000"
 preserveAspectRatio="xMidYMid meet">
<metadata>
Created by potrace 1.11, written by Peter Selinger 2001-2013
</metadata>
<g transform="translate(0.000000,700.000000) scale(0.100000,-0.100000)"
fill="#000000" stroke="none">
<path d="M1448 5834 c-56 -30 -79 -126 -44 -179 33 -50 73 -65 169 -65 l87 0
0 -300 0 -300 -632 0 c-677 0 -681 0 -784 -51 -64 -32 -155 -122 -188 -186
-59 -117 -56 -48 -56 -1503 0 -1458 -2 -1393 57 -1501 55 -102 190 -205 294
-224 l37 -7 4 -136 c3 -111 7 -143 22 -168 53 -89 185 -84 229 9 13 27 17 64
17 161 l0 126 2840 0 2840 0 0 -125 c0 -144 11 -184 62 -215 64 -39 146 -20
184 44 15 25 19 57 22 169 3 109 7 137 18 137 29 0 124 39 167 69 99 68 163
157 192 266 22 88 23 2701 0 2788 -43 167 -164 289 -328 333 -42 11 -180 14
-685 14 l-633 0 3 68 3 67 95 5 c52 3 104 10 116 17 55 32 76 129 37 181 -43
59 -60 62 -381 62 -318 0 -339 -3 -380 -55 -30 -38 -37 -84 -19 -128 24 -56
57 -71 166 -77 l96 -5 3 -67 3 -68 -1581 0 -1580 0 0 300 0 300 89 0 c75 0 93
3 122 23 86 57 85 178 -2 223 -42 21 -641 20 -681 -2z m5178 -1126 c40 -22 92
-81 101 -116 5 -15 8 -621 8 -1347 0 -1316 0 -1320 -21 -1359 -11 -22 -37 -54
-58 -70 l-38 -31 -3118 0 -3118 0 -39 31 c-21 16 -47 48 -58 70 -20 38 -20 59
-20 1369 0 1233 1 1332 17 1361 23 41 82 92 116 100 15 3 32 7 37 9 6 2 1394
3 3085 2 2873 -2 3077 -3 3106 -19z"/>
<path d="M1585 4581 c-527 -96 -943 -489 -1065 -1006 -88 -371 -2 -785 226
-1090 100 -135 282 -295 421 -370 103 -56 226 -104 338 -132 101 -25 126 -27
305 -28 180 0 203 2 303 27 515 131 890 517 998 1031 29 134 31 370 5 500 -54
277 -172 497 -375 698 -195 193 -386 300 -647 360 -131 30 -376 35 -509 10z
m335 -251 c375 -46 685 -264 845 -594 89 -183 125 -415 96 -617 -62 -430 -398
-788 -826 -882 -225 -49 -461 -22 -671 77 -126 60 -205 115 -304 215 -194 195
-294 423 -307 701 -26 597 432 1082 1047 1109 20 0 74 -4 120 -9z"/>
<path d="M1722 4206 c-36 -33 -37 -37 -40 -114 -5 -92 10 -131 61 -162 61 -38
133 -21 174 39 19 28 23 47 23 114 0 79 0 80 -39 118 -35 35 -44 39 -90 39
-44 0 -56 -5 -89 -34z"/>
<path d="M1164 3986 c-79 -35 -99 -128 -44 -204 33 -45 89 -87 132 -97 40 -10
110 27 133 69 35 64 7 141 -75 206 -47 37 -101 47 -146 26z"/>
<path d="M2345 3981 c-16 -10 -50 -40 -75 -65 -42 -44 -45 -50 -45 -101 0 -46
4 -58 29 -84 44 -46 88 -57 141 -37 53 21 120 91 133 140 31 110 -89 206 -183
147z"/>
<path d="M933 3400 c-35 -11 -80 -59 -89 -96 -15 -61 24 -129 89 -153 39 -15
121 -14 161 3 96 40 110 167 26 228 -30 22 -140 32 -187 18z"/>
<path d="M1775 3399 c-74 -21 -114 -111 -81 -181 9 -19 157 -174 329 -345 269
-269 317 -312 349 -318 21 -4 49 -4 62 -1 38 10 85 54 95 92 21 74 11 87 -312
412 -166 167 -315 311 -332 321 -40 24 -74 31 -110 20z"/>
<path d="M2550 3403 c-42 -8 -89 -50 -99 -91 -21 -77 27 -153 105 -168 47 -9
136 1 163 18 41 24 64 75 58 124 -10 94 -100 140 -227 117z"/>
<path d="M1153 2797 c-61 -62 -63 -65 -63 -116 0 -47 4 -57 33 -86 62 -62 128
-59 205 10 59 53 77 90 69 148 -4 31 -15 50 -41 74 -31 28 -43 33 -88 33 -50
0 -53 -2 -115 -63z"/>
<path d="M1743 2620 c-50 -30 -66 -70 -61 -161 3 -70 6 -81 33 -109 16 -17 46
-35 66 -42 32 -9 44 -8 81 10 61 30 78 64 78 154 0 55 -5 81 -20 105 -37 61
-116 81 -177 43z"/>
<path d="M5035 4593 c-208 -27 -406 -100 -580 -214 -101 -67 -296 -260 -362
-359 -103 -155 -174 -325 -210 -507 -25 -130 -23 -366 6 -500 109 -514 483
-900 998 -1031 100 -25 123 -27 303 -27 179 1 204 3 305 28 448 113 806 440
949 868 49 144 69 269 69 424 0 155 -20 280 -69 425 -63 189 -158 342 -307
496 -252 262 -597 407 -955 403 -65 -1 -130 -4 -147 -6z m345 -274 c155 -28
338 -111 469 -215 426 -337 526 -952 229 -1407 -68 -104 -192 -232 -287 -296
-437 -297 -1012 -236 -1373 147 -401 426 -383 1095 41 1495 167 157 374 255
606 286 76 10 226 5 315 -10z"/>
<path d="M5098 4200 l-40 -40 3 -90 c4 -85 6 -91 35 -121 60 -60 161 -48 204
24 15 23 20 50 20 100 0 112 -43 167 -133 167 -44 0 -53 -4 -89 -40z"/>
<path d="M4533 3980 c-63 -38 -84 -111 -50 -175 8 -17 156 -170 329 -341 350
-348 347 -346 433 -304 54 26 80 74 72 133 -5 37 -30 65 -324 359 -175 176
-330 326 -345 334 -37 19 -77 18 -115 -6z"/>
<path d="M5740 3993 c-30 -12 -84 -59 -112 -97 -33 -46 -37 -102 -11 -147 23
-39 93 -73 132 -64 42 9 106 58 137 105 22 34 26 48 22 90 -3 29 -13 59 -24
71 -34 39 -102 58 -144 42z"/>
<path d="M4315 3400 c-105 -33 -126 -182 -34 -238 27 -17 116 -27 163 -18 112
21 150 164 62 231 -38 29 -137 42 -191 25z"/>
<path d="M5920 3400 c-43 -11 -87 -58 -95 -104 -9 -43 17 -100 57 -130 34 -24
131 -33 180 -17 110 36 129 174 34 236 -30 20 -126 28 -176 15z"/>
<path d="M4574 2841 c-41 -25 -92 -89 -103 -128 -13 -46 3 -96 40 -127 66 -56
129 -47 205 28 79 79 85 147 19 213 -28 28 -40 33 -81 33 -30 0 -61 -7 -80
-19z"/>
<path d="M5644 2827 c-26 -24 -37 -43 -41 -74 -8 -58 10 -95 69 -148 77 -69
143 -72 205 -10 29 29 33 39 33 86 0 51 -2 54 -63 116 -62 61 -65 63 -115 63
-45 0 -57 -5 -88 -33z"/>
<path d="M5123 2620 c-47 -28 -63 -67 -63 -151 0 -91 22 -130 85 -154 53 -21
97 -10 141 36 26 27 29 38 32 108 3 58 0 86 -12 110 -21 41 -71 71 -116 71
-19 0 -49 -9 -67 -20z"/>
<path d="M3409 4451 l-39 -39 0 -1151 c0 -1272 -4 -1190 63 -1231 41 -25 93
-25 134 0 67 41 63 -41 63 1231 l0 1151 -39 39 c-35 35 -44 39 -91 39 -47 0
-56 -4 -91 -39z"/>
</g>
</svg>
